{
	"asset":{
		"generator":"Khronos glTF Blender I/O v3.6.28",
		"version":"2.0"
	},
	"scene":0,
	"scenes":[
		{
			"name":"Scene",
			"nodes":[
				0
			]
		}
	],
	"nodes":[
		{
			"mesh":0,
			"name":"Lamp",
			"rotation":[
				0.7071068286895752,
				0,
				0,
				0.7071068286895752
			],
			"scale":[
				1.1457154750823975,
				0.06641411036252975,
				1.1457154750823975
			],
			"translation":[
				0,
				0,
				-0.8329769372940063
			]
		}
	],
	"materials":[
		{
			"doubleSided":true,
			"name":"Material.008",
			"pbrMetallicRoughness":{
				"baseColorTexture":{
					"index":0
				},
				"metallicFactor":0,
				"roughnessFactor":0.5
			}
		}
	],
	"meshes":[
		{
			"name":"Cylinder.007",
			"primitives":[
				{
					"attributes":{
						"POSITION":0,
						"NORMAL":1,
						"TEXCOORD_0":2
					},
					"indices":3,
					"material":0
				}
			]
		}
	],
	"textures":[
		{
			"sampler":0,
			"source":0
		}
	],
	"images":[
		{
			"bufferView":4,
			"mimeType":"image/png",
			"name":"Lamp"
		}
	],
	"accessors":[
		{
			"bufferView":0,
			"componentType":5126,
			"count":2056,
			"max":[
				1.0304585695266724,
				33.90303039550781,
				1.0000001192092896
			],
			"min":[
				-1.0304585695266724,
				-8.818696975708008,
				-1
			],
			"type":"VEC3"
		},
		{
			"bufferView":1,
			"componentType":5126,
			"count":2056,
			"type":"VEC3"
		},
		{
			"bufferView":2,
			"componentType":5126,
			"count":2056,
			"type":"VEC2"
		},
		{
			"bufferView":3,
			"componentType":5123,
			"count":3816,
			"type":"SCALAR"
		}
	],
	"bufferViews":[
		{
			"buffer":0,
			"byteLength":24672,
			"byteOffset":0,
			"target":34962
		},
		{
			"buffer":0,
			"byteLength":24672,
			"byteOffset":24672,
			"target":34962
		},
		{
			"buffer":0,
			"byteLength":16448,
			"byteOffset":49344,
			"target":34962
		},
		{
			"buffer":0,
			"byteLength":7632,
			"byteOffset":65792,
			"target":34963
		},
		{
			"buffer":0,
			"byteLength":131173,
			"byteOffset":73424
		}
	],
	"samplers":[
		{
			"magFilter":9729,
			"minFilter":9987
		}
	],
	"buffers":[
		{
			"byteLength":204600,
			"uri":"data:application/octet-stream;base64,"
		}
	]
}
