# Made in Blockbench 5.0.7
mtllib Panneau END.mtl

o mesh
v 0.046875 0.734375 0.5
v 0.046875 0.984375 -0.5
v 0.046875 0.484375 -0.5
v -0.046875 0.734375 0.5
v -0.046875 0.984375 -0.5
v -0.046875 0.484375 -0.5
v 0.046875 0.984375 0.25
v 0.046875 0.484375 0.25
v -0.046875 0.484375 0.25
v -0.046875 0.984375 0.25
vt 0.5835055351483185 1
vt 0.40672883985168157 0.823223304703363
vt 0.5835055351483185 0.8232233047033631
vt 0.40672883985168157 0.78125
vt 0.40672883985168157 0.6044733047033631
vt 0.5835055351483185 0.78125
vt 0.15625 0.25
vt 0.15625 0.4375
vt 0.09375 0.4375
vt 0.09375 0.25
vt 0.1875 0.4375
vt 0.1875 0.25
vt 0.25 0.25
vt 0.25 0.4375
vt 0.0625 0.4375
vt 0 0.4375
vt 0 0.1875
vt 0.0625 0.1875
vt 0.375 1
vt 0 1
vt 0 0.75
vt 0.375 0.75
vt 0.46875 0.1875
vt 0.46875 0.5625
vt 0.40625 0.5625
vt 0.40625 0.1875
vt 0 0.46875
vt 0.375 0.46875
vt 0.375 0.71875
vt 0 0.71875
vt 0.5 0.625
vt 0.5 0.25
vt 0.5625 0.25
vt 0.5625 0.625
vn -1 0 0
vn 1 0 0
vn 0 0.7071067811865476 0.7071067811865476
vn 0 -0.7071067811865476 0.7071067811865476
vn 0 0 -1
vn 1 0 0
vn 0 -1 0
vn -1 0 0
vn 0 1 0
usemtl m_8ed43c02-57e2-b581-3123-7cec6e1e8c40
f 7/1/1 8/2/1 1/3/1
f 4/4/2 9/5/2 10/6/2
f 1/7/3 7/8/3 10/9/3 4/10/3
f 4/11/4 9/12/4 8/13/4 1/14/4
f 5/15/5 2/16/5 3/17/5 6/18/5
f 2/19/6 7/20/6 8/21/6 3/22/6
f 3/23/7 8/24/7 9/25/7 6/26/7
f 6/27/8 9/28/8 10/29/8 5/30/8
f 5/31/9 10/32/9 7/33/9 2/34/9
o mesh
v 0.03125 1.015625 -0.015625
v 0.03125 1.015625 -0.078125
v 0.03125 -0.046875 -0.015625
v 0.03125 -0.046875 -0.078125
v -0.03125 1.015625 -0.015625
v -0.03125 1.015625 -0.078125
v -0.03125 -0.046875 -0.015625
v -0.03125 -0.046875 -0.078125
vt 0.03125 1
vt 0 1
vt 0 0.46875
vt 0.03125 0.46875
vt 0.09375 0.46875
vt 0.09375 1
vt 0.0625 1
vt 0.0625 0.46875
vt 0.25 0.96875
vt 0.28125 0.96875
vt 0.28125 1
vt 0.25 1
vt 0.28125 0.90625
vt 0.28125 0.9375
vt 0.25 0.9375
vt 0.25 0.90625
vt 0.15625 0.46875
vt 0.15625 1
vt 0.125 1
vt 0.125 0.46875
vt 0.21875 1
vt 0.1875 1
vt 0.1875 0.46875
vt 0.21875 0.46875
vn 1 0 0
vn -1 0 0
vn 0 1 0
vn 0 -1 0
vn 0 0 1
vn 0 0 -1
usemtl m_4ce8b9f8-71a1-9857-fa5a-ba9a0c9a11b8
f 12/35/10 11/36/10 13/37/10 14/38/10
f 17/39/11 15/40/11 16/41/11 18/42/11
f 15/43/12 11/44/12 12/45/12 16/46/12
f 14/47/13 13/48/13 17/49/13 18/50/13
f 13/51/14 11/52/14 15/53/14 17/54/14
f 16/55/15 12/56/15 14/57/15 18/58/15