{"asset":{"version":"2.0","generator":"Blockbench 5.0.7 glTF exporter"},"scenes":[{"nodes":[0,1],"name":"blockbench_export"}],"scene":0,"nodes":[{"translation":[0,0.609375,0.28125],"name":"mesh","mesh":0},{"translation":[0,0.234375,-0.046875],"name":"mesh","mesh":1}],"bufferViews":[{"buffer":0,"byteOffset":0,"byteLength":408,"target":34962,"byteStride":12},{"buffer":0,"byteOffset":408,"byteLength":408,"target":34962,"byteStride":12},{"buffer":0,"byteOffset":816,"byteLength":272,"target":34962,"byteStride":8},{"buffer":0,"byteOffset":1088,"byteLength":96,"target":34963},{"buffer":0,"byteOffset":1184,"byteLength":288,"target":34962,"byteStride":12},{"buffer":0,"byteOffset":1472,"byteLength":288,"target":34962,"byteStride":12},{"buffer":0,"byteOffset":1760,"byteLength":192,"target":34962,"byteStride":8},{"buffer":0,"byteOffset":1952,"byteLength":72,"target":34963}],"buffers":[{"byteLength":2024,"uri":"data:application/octet-stream;base64,"}],"accessors":[{"bufferView":0,"componentType":5126,"count":34,"max":[0.046875,0.375,0.21875],"min":[-0.046875,-0.125,-0.78125],"type":"VEC3"},{"bufferView":1,"componentType":5126,"count":34,"max":[1,1,0.7071067690849304],"min":[-1,-1,-1],"type":"VEC3"},{"bufferView":2,"componentType":5126,"count":34,"max":[0.5835056304931641,0.8125],"min":[0,0],"type":"VEC2"},{"bufferView":3,"componentType":5123,"count":48,"max":[33],"min":[0],"type":"SCALAR"},{"bufferView":4,"componentType":5126,"count":24,"max":[0.03125,0.78125,0.03125],"min":[-0.03125,-0.28125,-0.03125],"type":"VEC3"},{"bufferView":5,"componentType":5126,"count":24,"max":[1,1,1],"min":[-1,-1,-1],"type":"VEC3"},{"bufferView":6,"componentType":5126,"count":24,"max":[0.28125,0.53125],"min":[0,0],"type":"VEC2"},{"bufferView":7,"componentType":5123,"count":36,"max":[23],"min":[0],"type":"SCALAR"}],"materials":[{"pbrMetallicRoughness":{"metallicFactor":0,"roughnessFactor":1,"baseColorTexture":{"index":0}},"alphaMode":"MASK","alphaCutoff":0.05,"doubleSided":true},{"pbrMetallicRoughness":{"metallicFactor":0,"roughnessFactor":1,"baseColorTexture":{"index":1}},"alphaMode":"MASK","alphaCutoff":0.05,"doubleSided":true}],"textures":[{"sampler":0,"source":0,"name":"texture"},{"sampler":1,"source":1,"name":"texture"}],"samplers":[{"magFilter":9728,"minFilter":9728,"wrapS":33071,"wrapT":33071},{"magFilter":9728,"minFilter":9728,"wrapS":33071,"wrapT":33071}],"images":[{"mimeType":"image/png","uri":"data:image/png;base64,"},{"mimeType":"image/png","uri":"data:image/png;base64,"}],"meshes":[{"primitives":[{"mode":4,"attributes":{"POSITION":0,"NORMAL":1,"TEXCOORD_0":2},"indices":3,"material":0}]},{"primitives":[{"mode":4,"attributes":{"POSITION":4,"NORMAL":5,"TEXCOORD_0":6},"indices":7,"material":1}]}]}